#!OML:ASF H:\MichaelJackson\Top Level 1\Subject 1\Session 1\male.ASF
:FULLY-SPECIFIED
:DEGREES
435
root 0.992994 16.7432 -21.7714 10.0527 4.44582 -7.05339
lowerback 6.12523 -1.33489 8.48069
upperback 0.348685 -1.10054 2.573
thorax -3.19173 -0.648312 -1.98188
lowerneck -8.0306 -0.944417 4.55231
upperneck 2.05444 -1.63955 -1.75488
head 1.98465 -0.824364 -1.41514
rclavicle 1.14798e-014 -4.29375e-014
rhumerus -36.0577 -32.836 -48.9812
rradius 97.9012
rwrist -1.30671
rhand -52.0324 -58.0231
rfingers 7.12502
rthumb -24.5385 -446.471
lclavicle 1.14798e-014 -4.29375e-014
lhumerus -51.8962 -15.758 99.9982
lradius 54.7394
lwrist 32.3737
lhand -28.305 1.10893
lfingers 7.12502
lthumb -1.68045 31.0821
rfemur -17.1942 8.43888 20.1751
rtibia 29.8114
rfoot -25.1706 -6.05647
rtoes 7.35469
lfemur -58.8872 11.5993 -13.1147
ltibia 76.606
lfoot 17.2703 4.34969
ltoes 15.576
436
root 0.954002 16.7431 -21.7141 9.96609 5.09983 -6.98053
lowerback 6.02935 -1.31388 8.43959
upperback 0.340434 -1.08372 2.62107
thorax -3.14309 -0.637438 -1.91251
lowerneck -8.02313 -1.11934 4.35886
upperneck 2.22807 -1.85223 -1.77008
head 2.03381 -0.930739 -1.39648
rclavicle -2.83268e-015 2.36554e-014
rhumerus -37.1914 -34.4289 -49.3339
rradius 96.2286
rwrist -9.40801
rhand -50.5063 -58.779
rfingers 7.12502
rthumb -23.075 -447.417
lclavicle -2.83268e-015 2.36554e-014
lhumerus -51.7729 -15.2776 100.021
lradius 55.1213
lwrist 32.5994
lhand -27.9514 1.85496
lfingers 7.12502
lthumb -1.33902 31.8305
rfemur -16.6726 8.52831 20.4022
rtibia 29.6007
rfoot -25.2984 -6.25692
rtoes 6.92918
lfemur -59.7523 11.441 -14.1765
ltibia 75.9024
lfoot 16.6379 0.545356
ltoes 11.6561
437
root 0.917473 16.7381 -21.6557 9.90201 5.64724 -6.93792
lowerback 5.92464 -1.26664 8.4116
upperback 0.329765 -1.03209 2.66817
thorax -3.08902 -0.609433 -1.85466
lowerneck -8.00051 -1.27999 4.16158
upperneck 2.35766 -2.0449 -1.78279
head 2.06683 -1.02775 -1.37484
rclavicle 7.8023e-015 -1.39149e-015
rhumerus -38.3594 -35.8899 -49.4529
rradius 94.4218
rwrist -17.7389
rhand -49.0531 -59.5992
rfingers 7.12502
rthumb -21.68 -448.405
lclavicle 7.8023e-015 -1.39149e-015
lhumerus -51.6262 -14.7078 100.003
lradius 55.51
lwrist 32.7057
lhand -27.6102 2.36528
lfingers 7.12502
lthumb -1.00946 32.3426
rfemur -16.262 8.26612 20.6427
rtibia 29.5401
rfoot -25.4055 -6.71727
rtoes 5.84121
lfemur -60.5088 11.3237 -15.1583
ltibia 75.0199
lfoot 15.5206 -3.14452
ltoes 8.07865
438
root 0.883814 16.728 -21.5954 9.83882 6.06888 -6.92789
lowerback 5.81861 -1.19313 8.40105
upperback 0.328381 -0.945487 2.70873
thorax -3.02177 -0.563756 -1.81637
lowerneck -7.95969 -1.42323 3.96311
upperneck 2.44435 -2.21443 -1.77627
head 2.08363 -1.11322 -1.34501
rclavicle 8.15017e-015 -1.53064e-014
rhumerus -39.545 -37.1755 -49.3857
rradius 92.4155
rwrist -25.9265
rhand -47.6641 -60.4654
rfingers 7.12502
rthumb -20.3456 -449.42
lclavicle 8.15017e-015 -1.53064e-014
lhumerus -51.4588 -14.0618 99.9478
lradius 55.8908
lwrist 32.7362
lhand -27.309 2.63745
lfingers 7.12502
lthumb -0.718484 32.616
rfemur -15.9304 7.73583 20.8864
rtibia 29.6016
rfoot -25.5177 -7.21023
rtoes 4.45071
lfemur -61.1229 11.2468 -16.0427
ltibia 73.9598
lfoot 13.9341 -6.51627
ltoes 5.03449
439
root 0.852444 16.7132 -21.5336 9.76947 6.38889 -6.95282
lowerback 5.70117 -1.10243 8.39917
upperback 0.345684 -0.838182 2.74969
thorax -2.92691 -0.506578 -1.78439
lowerneck -7.90316 -1.54943 3.77289
upperneck 2.49313 -2.36227 -1.75686
head 2.08614 -1.18781 -1.31082
rclavicle -4.37326e-015 2.20651e-014
rhumerus -40.6933 -38.2052 -49.2132
rradius 90.1329
rwrist -33.4974
rhand -46.3173 -61.3431
rfingers 7.12502
rthumb -19.0509 -269.57
lclavicle -4.37326e-015 2.20651e-014
lhumerus -51.2654 -13.3567 99.8713
lradius 56.2459
lwrist 32.7144
lhand -27.0471 2.67303
lfingers 7.12502
lthumb -0.465582 32.6523
rfemur -15.6529 7.00385 21.1361
rtibia 29.7531
rfoot -25.6668 -7.59105
rtoes 2.86339
lfemur -61.5923 11.1842 -16.8125
ltibia 72.7173
lfoot 11.9952 -9.41735
ltoes 2.60929
440
root 0.823368 16.6951 -21.4701 9.68481 6.60474 -7.01102
lowerback 5.59896 -1.0004 8.41637
upperback 0.37227 -0.713994 2.7806
thorax -2.82988 -0.441046 -1.77425
lowerneck -7.82973 -1.65249 3.59361
upperneck 2.52391 -2.48123 -1.71018
head 2.08096 -1.24724 -1.26809
rclavicle 1.03865e-014 -1.17283e-014
rhumerus -41.7231 -38.8756 -49.0772
rradius 87.4936
rwrist -39.9517
rhand -45.0222 -62.0544
rfingers 7.12502
rthumb -17.805 -268.741
lclavicle 1.03865e-014 -1.17283e-014
lhumerus -51.0779 -12.6107 99.7722
lradius 56.572
lwrist 32.648
lhand -26.8296 2.58484
lfingers 7.12502
lthumb -0.255535 32.5644
rfemur -15.3973 6.1654 21.3884
rtibia 29.9562
rfoot -25.8706 -7.76169
rtoes 1.249
lfemur -61.9031 11.1361 -17.4586
ltibia 71.2814
lfoot 9.79531 -11.756
ltoes 0.720906
441
root 0.796682 16.676 -21.4045 9.58256 6.70492 -7.10087
lowerback 5.49327 -0.88368 8.43979
upperback 0.419516 -0.572124 2.80693
thorax -2.70785 -0.365494 -1.77347
lowerneck -7.75602 -1.73178 3.42987
upperneck 2.55219 -2.57084 -1.65152
head 2.07605 -1.29158 -1.22309
rclavicle 5.41688e-015 -9.34288e-015
rhumerus -42.5036 -39.1012 -49.129
rradius 84.4402
rwrist -44.8015
rhand -43.7209 -62.355
rfingers 7.12502
rthumb -16.5525 -268.331
lclavicle 5.41688e-015 -9.34288e-015
lhumerus -50.8878 -11.8478 99.6679
lradius 56.855
lwrist 32.5426
lhand -26.6589 2.49633
lfingers 7.12502
lthumb -0.0906299 32.4761
rfemur -15.1382 5.30676 21.6446
rtibia 30.1666
rfoot -26.108 -7.7498
rtoes -0.319497
lfemur -62.0402 11.1183 -17.9746
ltibia 69.6368
lfoot 7.46877 -13.5155
ltoes -0.852712
442
root 0.771854 16.657 -21.3366 9.45877 6.69846 -7.2174
lowerback 5.40401 -0.753697 8.47077
upperback 0.473405 -0.411372 2.81995
thorax -2.58654 -0.280567 -1.79138
lowerneck -7.67453 -1.79119 3.2955
upperneck 2.59828 -2.63708 -1.58546
head 2.0763 -1.32357 -1.18013
rclavicle 4.32357e-015 2.62396e-014
rhumerus -42.9798 -38.8463 -49.4702
rradius 80.9398
rwrist -47.5895
rhand -42.1565 -61.9048
rfingers 7.12502
rthumb -15.0459 -268.662
lclavicle 4.32357e-015 2.62396e-014
lhumerus -50.7296 -11.1119 99.5677
lradius 57.0855
lwrist 32.4091
lhand -26.5632 2.51467
lfingers 7.12502
lthumb 0.00174731 32.4944
rfemur -14.8402 4.50664 21.909
rtibia 30.337
rfoot -26.3587 -7.63914
rtoes -1.73989
lfemur -62.0004 11.1249 -18.3506
ltibia 67.7667
lfoot 5.17559 -14.7276
ltoes -2.24405
443
root 0.748985 16.6401 -21.2666 9.32471 6.59319 -7.34987
lowerback 5.31966 -0.611336 8.49831
upperback 0.530564 -0.234592 2.82118
thorax -2.46298 -0.187505 -1.82007
lowerneck -7.59414 -1.83146 3.19187
upperneck 2.67331 -2.68078 -1.52386
head 2.08674 -1.34391 -1.14362
rclavicle -7.05686e-015 5.28767e-014
rhumerus -43.1028 -38.0879 -50.1732
rradius 77.0312
rwrist -48.1343
rhand -40.2534 -60.6039
rfingers 7.12502
rthumb -13.2121 -269.835
lclavicle -7.05686e-015 5.28767e-014
lhumerus -50.6041 -10.4288 99.4861
lradius 57.2518
lwrist 32.2455
lhand -26.5304 2.67996
lfingers 7.12502
lthumb 0.0335011 32.6597
rfemur -14.494 3.82992 22.1718
rtibia 30.437
rfoot -26.6138 -7.49588
rtoes -2.91691
lfemur -61.7928 11.1352 -18.5829
ltibia 65.6582
lfoot 3.05959 -15.4373
ltoes -3.51541
444
root 0.727917 16.6271 -21.1941 9.18599 6.40444 -7.49078
lowerback 5.22067 -0.459575 8.51113
upperback 0.59659 -0.0488379 2.81645
thorax -2.32092 -0.0889591 -1.84675
lowerneck -7.53392 -1.85329 3.11314
upperneck 2.7815 -2.70242 -1.47613
head 2.11213 -1.35319 -1.11595
rclavicle -3.37934e-015 -1.27222e-014
rhumerus -42.8532 -36.8946 -51.2534
rradius 72.7557
rwrist -46.3679
rhand -37.9533 -58.4345
rfingers 7.12502
rthumb -10.9942 -448.127
lclavicle -3.37934e-015 -1.27222e-014
lhumerus -50.4962 -9.8109 99.4312
lradius 57.3413
lwrist 32.0798
lhand -26.515 2.96544
lfingers 7.12502
lthumb 0.0483571 32.9452
rfemur -14.0895 3.30674 22.4328
rtibia 30.4467
rfoot -26.829 -7.45141
rtoes -4.12418
lfemur -61.4161 11.1165 -18.6558
ltibia 63.3101
lfoot 1.21333 -15.7029
ltoes -4.76124
445
root 0.708735 16.6171 -21.1192 9.0507 6.14742 -7.63148
lowerback 5.11333 -0.301398 8.51756
upperback 0.660197 0.143868 2.79858
thorax -2.1759 0.0131445 -1.88298
lowerneck -7.48962 -1.86155 3.05652
upperneck 2.9231 -2.70817 -1.43869
head 2.15163 -1.35438 -1.09564
rclavicle -1.01877e-014 -2.38542e-014
rhumerus -42.3212 -35.3656 -52.6392
rradius 68.1844
rwrist -42.333
rhand -35.1871 -55.4724
rfingers 7.12502
rthumb -8.32531 -445.288
lclavicle -1.01877e-014 -2.38542e-014
lhumerus -50.4157 -9.28694 99.4061
lradius 57.3486
lwrist 31.9426
lhand -26.5116 3.34227
lfingers 7.12502
lthumb 0.0515987 33.322
rfemur -13.6289 2.94097 22.6823
rtibia 30.3586
rfoot -26.9925 -7.48322
rtoes -5.2571
lfemur -60.8957 11.0442 -18.5681
ltibia 60.7434
lfoot -0.306862 -15.5891
ltoes -5.68264
446
root 0.691143 16.6095 -21.0415 8.92349 5.85791 -7.75981
lowerback 4.97529 -0.143387 8.50108
upperback 0.727678 0.331194 2.77635
thorax -2.01007 0.113635 -1.90956
lowerneck -7.46262 -1.86174 3.01036
upperneck 3.07994 -2.70405 -1.41573
head 2.19943 -1.35089 -1.08194
rclavicle -4.42296e-015 2.5842e-015
rhumerus -41.6017 -33.6359 -54.2074
rradius 63.4054
rwrist -36.2385
rhand -31.9377 -51.8024
rfingers 7.12502
rthumb -5.18853 -441.719
lclavicle -4.42296e-015 2.5842e-015
lhumerus -50.339 -8.85622 99.4219
lradius 57.2672
lwrist 31.845
lhand -26.4895 3.76034
lfingers 7.12502
lthumb 0.0729335 33.7401
rfemur -13.1154 2.71995 22.9127
rtibia 30.1744
rfoot -27.0992 -7.56504
rtoes -6.22478
lfemur -60.2407 10.8447 -18.2998
ltibia 57.9874
lfoot -1.51541 -15.1306
ltoes -6.22767
447
root 0.675191 16.6041 -20.9611 8.81422 5.5635 -7.87242
lowerback 4.79684 0.00776348 8.46923
upperback 0.796862 0.503929 2.75014
thorax -1.82127 0.207867 -1.92937
lowerneck -7.45882 -1.85543 2.96459
upperneck 3.24443 -2.69166 -1.40049
head 2.25424 -1.34354 -1.071
rclavicle 1.22253e-014 1.70955e-014
rhumerus -40.794 -31.8608 -55.8396
rradius 58.5414
rwrist -28.5035
rhand -28.4844 -47.588
rfingers 7.12502
rthumb -1.85374 -437.56
lclavicle 1.22253e-014 1.70955e-014
lhumerus -50.2578 -8.51368 99.473
lradius 57.1033
lwrist 31.7971
lhand -26.397 4.13932
lfingers 7.12502
lthumb 0.162303 34.119
rfemur -12.5695 2.61396 23.1208
rtibia 29.9075
rfoot -27.1534 -7.67546
rtoes -6.99556
lfemur -59.4799 10.479 -17.8467
ltibia 55.0829
lfoot -2.49999 -14.3699
ltoes -6.50767
448
root 0.661011 16.6002 -20.8778 8.72964 5.27619 -7.97263
lowerback 4.59943 0.147242 8.4465
upperback 0.846566 0.66088 2.71111
thorax -1.64343 0.293342 -1.96514
lowerneck -7.46981 -1.84492 2.91681
upperneck 3.4214 -2.67408 -1.38162
head 2.31622 -1.33347 -1.05875
rclavicle -1.58034e-014 -2.20651e-014
rhumerus -40.0205 -30.2003 -57.4085
rradius 53.7246
rwrist -19.6277
rhand -25.1227 -42.9332
rfingers 7.12502
rthumb 1.39307 -432.908
lclavicle -1.58034e-014 -2.20651e-014
lhumerus -50.2003 -8.24857 99.54
lradius 56.8779
lwrist 31.8061
lhand -26.2348 4.49209
lfingers 7.12502
lthumb 0.318987 34.4716
rfemur -12.0057 2.5917 23.3085
rtibia 29.5715
rfoot -27.1626 -7.78383
rtoes -7.59668
lfemur -58.6338 9.91713 -17.193
ltibia 52.0721
lfoot -3.32032 -13.2784
ltoes -6.49284
